<mxfile host="app.diagrams.net" agent="Mozilla/5.0 (Windows NT 10.0; Win64; x64) AppleWebKit/537.36 (KHTML, like Gecko) Chrome/134.0.0.0 Safari/537.36 Edg/134.0.0.0" version="26.1.3">
  <diagram name="Страница — 1" id="bfli_E8VYjx5Wy3c4E3M">
    <mxGraphModel dx="1489" dy="819" grid="1" gridSize="10" guides="1" tooltips="1" connect="1" arrows="1" fold="1" page="1" pageScale="1" pageWidth="827" pageHeight="1169" math="0" shadow="0">
      <root>
        <mxCell id="0" />
        <mxCell id="1" parent="0" />
        <mxCell id="32de5KA1GBCsstse2NDn-1" value="" style="endArrow=classic;html=1;rounded=0;" edge="1" parent="1" target="32de5KA1GBCsstse2NDn-2">
          <mxGeometry width="50" height="50" relative="1" as="geometry">
            <mxPoint x="40" y="260" as="sourcePoint" />
            <mxPoint x="220" y="260" as="targetPoint" />
          </mxGeometry>
        </mxCell>
        <mxCell id="32de5KA1GBCsstse2NDn-3" value="Дополнительная информация" style="edgeLabel;html=1;align=center;verticalAlign=middle;resizable=0;points=[];" vertex="1" connectable="0" parent="32de5KA1GBCsstse2NDn-1">
          <mxGeometry x="-0.3171" y="2" relative="1" as="geometry">
            <mxPoint x="25" y="2" as="offset" />
          </mxGeometry>
        </mxCell>
        <mxCell id="32de5KA1GBCsstse2NDn-5" value="" style="edgeStyle=orthogonalEdgeStyle;rounded=0;orthogonalLoop=1;jettySize=auto;html=1;exitX=1;exitY=0.5;exitDx=0;exitDy=0;" edge="1" parent="1" source="32de5KA1GBCsstse2NDn-2" target="32de5KA1GBCsstse2NDn-4">
          <mxGeometry relative="1" as="geometry">
            <Array as="points">
              <mxPoint x="380" y="260" />
              <mxPoint x="380" y="360" />
            </Array>
          </mxGeometry>
        </mxCell>
        <mxCell id="32de5KA1GBCsstse2NDn-2" value="Открытие запросов на полёт" style="rounded=1;whiteSpace=wrap;html=1;" vertex="1" parent="1">
          <mxGeometry x="230" y="230" width="120" height="60" as="geometry" />
        </mxCell>
        <mxCell id="32de5KA1GBCsstse2NDn-7" value="" style="edgeStyle=orthogonalEdgeStyle;rounded=0;orthogonalLoop=1;jettySize=auto;html=1;exitX=1;exitY=0.5;exitDx=0;exitDy=0;" edge="1" parent="1" source="32de5KA1GBCsstse2NDn-4" target="32de5KA1GBCsstse2NDn-6">
          <mxGeometry relative="1" as="geometry">
            <Array as="points">
              <mxPoint x="570" y="360" />
              <mxPoint x="570" y="470" />
            </Array>
          </mxGeometry>
        </mxCell>
        <mxCell id="32de5KA1GBCsstse2NDn-4" value="Анализ информации предоставленной в отчёте" style="whiteSpace=wrap;html=1;rounded=1;" vertex="1" parent="1">
          <mxGeometry x="420" y="330" width="120" height="60" as="geometry" />
        </mxCell>
        <mxCell id="32de5KA1GBCsstse2NDn-9" value="" style="edgeStyle=orthogonalEdgeStyle;rounded=0;orthogonalLoop=1;jettySize=auto;html=1;exitX=1;exitY=0.5;exitDx=0;exitDy=0;entryX=0;entryY=0.5;entryDx=0;entryDy=0;" edge="1" parent="1" source="32de5KA1GBCsstse2NDn-6" target="32de5KA1GBCsstse2NDn-8">
          <mxGeometry relative="1" as="geometry">
            <Array as="points">
              <mxPoint x="760" y="470" />
              <mxPoint x="760" y="585" />
            </Array>
          </mxGeometry>
        </mxCell>
        <mxCell id="32de5KA1GBCsstse2NDn-6" value="Получение информации" style="whiteSpace=wrap;html=1;rounded=1;" vertex="1" parent="1">
          <mxGeometry x="610" y="440" width="120" height="60" as="geometry" />
        </mxCell>
        <mxCell id="32de5KA1GBCsstse2NDn-13" value="" style="edgeStyle=orthogonalEdgeStyle;rounded=0;orthogonalLoop=1;jettySize=auto;html=1;" edge="1" parent="1" source="32de5KA1GBCsstse2NDn-8" target="32de5KA1GBCsstse2NDn-12">
          <mxGeometry relative="1" as="geometry">
            <Array as="points">
              <mxPoint x="950" y="585" />
              <mxPoint x="950" y="690" />
            </Array>
          </mxGeometry>
        </mxCell>
        <mxCell id="32de5KA1GBCsstse2NDn-8" value="Открытие договоров с авиакомпаниями и получение информации" style="whiteSpace=wrap;html=1;rounded=1;" vertex="1" parent="1">
          <mxGeometry x="800" y="555" width="120" height="60" as="geometry" />
        </mxCell>
        <mxCell id="32de5KA1GBCsstse2NDn-14" style="edgeStyle=orthogonalEdgeStyle;rounded=0;orthogonalLoop=1;jettySize=auto;html=1;" edge="1" parent="1" source="32de5KA1GBCsstse2NDn-12">
          <mxGeometry relative="1" as="geometry">
            <mxPoint x="1290" y="690" as="targetPoint" />
          </mxGeometry>
        </mxCell>
        <mxCell id="32de5KA1GBCsstse2NDn-15" value="Отчёт о воздушном судне" style="edgeLabel;html=1;align=center;verticalAlign=middle;resizable=0;points=[];" vertex="1" connectable="0" parent="32de5KA1GBCsstse2NDn-14">
          <mxGeometry x="0.3057" y="2" relative="1" as="geometry">
            <mxPoint x="-20" y="2" as="offset" />
          </mxGeometry>
        </mxCell>
        <mxCell id="32de5KA1GBCsstse2NDn-12" value="Составление отчёта обо всей полученной информации" style="whiteSpace=wrap;html=1;rounded=1;" vertex="1" parent="1">
          <mxGeometry x="1000" y="660" width="120" height="60" as="geometry" />
        </mxCell>
        <mxCell id="32de5KA1GBCsstse2NDn-16" value="" style="edgeStyle=orthogonalEdgeStyle;rounded=0;orthogonalLoop=1;jettySize=auto;html=1;" edge="1" parent="1">
          <mxGeometry relative="1" as="geometry">
            <mxPoint x="551.95" y="110" as="sourcePoint" />
            <mxPoint x="480" y="330" as="targetPoint" />
            <Array as="points">
              <mxPoint x="551.95" y="260" />
              <mxPoint x="479.95" y="260" />
            </Array>
          </mxGeometry>
        </mxCell>
        <mxCell id="32de5KA1GBCsstse2NDn-17" value="Регламенты&lt;br&gt;и стандарты" style="edgeLabel;html=1;align=center;verticalAlign=middle;resizable=0;points=[];" vertex="1" connectable="0" parent="32de5KA1GBCsstse2NDn-16">
          <mxGeometry x="-0.7371" y="-1" relative="1" as="geometry">
            <mxPoint as="offset" />
          </mxGeometry>
        </mxCell>
        <mxCell id="32de5KA1GBCsstse2NDn-18" value="" style="edgeStyle=orthogonalEdgeStyle;rounded=0;orthogonalLoop=1;jettySize=auto;html=1;entryX=0.75;entryY=0;entryDx=0;entryDy=0;" edge="1" parent="1" target="32de5KA1GBCsstse2NDn-8">
          <mxGeometry relative="1" as="geometry">
            <mxPoint x="551.95" y="260" as="sourcePoint" />
            <mxPoint x="890" y="480" as="targetPoint" />
            <Array as="points">
              <mxPoint x="890" y="260" />
            </Array>
          </mxGeometry>
        </mxCell>
        <mxCell id="32de5KA1GBCsstse2NDn-20" value="" style="endArrow=classic;html=1;rounded=0;entryX=0.5;entryY=0;entryDx=0;entryDy=0;" edge="1" parent="1" target="32de5KA1GBCsstse2NDn-8">
          <mxGeometry width="50" height="50" relative="1" as="geometry">
            <mxPoint x="860" y="110" as="sourcePoint" />
            <mxPoint x="940" y="510" as="targetPoint" />
          </mxGeometry>
        </mxCell>
        <mxCell id="32de5KA1GBCsstse2NDn-21" value="Инструкции" style="edgeLabel;html=1;align=center;verticalAlign=middle;resizable=0;points=[];" vertex="1" connectable="0" parent="32de5KA1GBCsstse2NDn-20">
          <mxGeometry x="-0.8245" y="-2" relative="1" as="geometry">
            <mxPoint as="offset" />
          </mxGeometry>
        </mxCell>
        <mxCell id="32de5KA1GBCsstse2NDn-24" value="" style="edgeStyle=orthogonalEdgeStyle;rounded=0;orthogonalLoop=1;jettySize=auto;html=1;entryX=0.43;entryY=-0.041;entryDx=0;entryDy=0;entryPerimeter=0;" edge="1" parent="1" target="32de5KA1GBCsstse2NDn-12">
          <mxGeometry relative="1" as="geometry">
            <mxPoint x="860" y="220" as="sourcePoint" />
            <mxPoint x="1050" y="650" as="targetPoint" />
            <Array as="points">
              <mxPoint x="1050" y="220" />
              <mxPoint x="1050" y="650" />
              <mxPoint x="1052" y="650" />
            </Array>
          </mxGeometry>
        </mxCell>
        <mxCell id="32de5KA1GBCsstse2NDn-25" value="" style="endArrow=classic;html=1;rounded=0;" edge="1" parent="1">
          <mxGeometry width="50" height="50" relative="1" as="geometry">
            <mxPoint x="860" y="850" as="sourcePoint" />
            <mxPoint x="860" y="615" as="targetPoint" />
          </mxGeometry>
        </mxCell>
        <mxCell id="32de5KA1GBCsstse2NDn-26" value="Оборудование" style="edgeLabel;html=1;align=center;verticalAlign=middle;resizable=0;points=[];" vertex="1" connectable="0" parent="32de5KA1GBCsstse2NDn-25">
          <mxGeometry x="-0.8245" y="-2" relative="1" as="geometry">
            <mxPoint as="offset" />
          </mxGeometry>
        </mxCell>
        <mxCell id="32de5KA1GBCsstse2NDn-27" value="" style="edgeStyle=orthogonalEdgeStyle;rounded=0;orthogonalLoop=1;jettySize=auto;html=1;" edge="1" parent="1" target="32de5KA1GBCsstse2NDn-2">
          <mxGeometry relative="1" as="geometry">
            <mxPoint x="290" y="850" as="sourcePoint" />
            <mxPoint x="811.05" y="620" as="targetPoint" />
            <Array as="points">
              <mxPoint x="290" y="855" />
            </Array>
          </mxGeometry>
        </mxCell>
        <mxCell id="32de5KA1GBCsstse2NDn-28" value="Информационные системы" style="edgeLabel;html=1;align=center;verticalAlign=middle;resizable=0;points=[];" vertex="1" connectable="0" parent="32de5KA1GBCsstse2NDn-27">
          <mxGeometry x="-0.8059" y="1" relative="1" as="geometry">
            <mxPoint as="offset" />
          </mxGeometry>
        </mxCell>
      </root>
    </mxGraphModel>
  </diagram>
</mxfile>
